<svg width="806" height="806" viewBox="0 0 806 806" fill="none" xmlns="http://www.w3.org/2000/svg">
<path d="M614.975 196C710.459 196 788 287.499 788 402.833C788 516.63 710.459 609.282 614.975 609.282C568.515 609.282 525.258 587.753 492.576 548.924L403.5 454.349L312.822 550.846C281.742 588.138 238.165 609.667 192.025 609.667C96.5408 609.667 19 516.63 19 402.833C19 289.037 96.5408 196 192.025 196C238.165 196 281.742 217.529 314.424 256.743L403.5 351.317L494.178 254.821C525.258 217.529 568.835 196 614.975 196ZM268.925 494.717L355.437 402.833L270.207 312.488C248.418 286.345 221.183 272.89 192.025 272.89C132.107 272.89 83.0833 330.941 83.0833 402.833C83.0833 474.725 132.107 532.777 192.025 532.777C221.183 532.777 248.418 519.321 268.925 494.717ZM538.075 310.95L451.562 402.833L536.793 493.179C558.582 519.321 586.137 532.777 614.975 532.777C674.893 532.777 723.917 474.725 723.917 402.833C723.917 330.941 674.893 272.89 614.975 272.89C585.817 272.89 558.582 286.345 538.075 310.95Z" fill="url(#paint0_angular_23_3)"/>
<g clip-path="url(#clip0_23_3)">
<path d="M147.793 390.621L135.485 401.199L163.889 434.634L167.68 489.237L179.989 478.659L182.643 441.663L211.482 416.879L219.42 502.625L231.076 492.608L244.202 388.768L268.822 367.603C270.471 366.239 271.94 364.418 273.141 362.247C274.342 360.075 275.253 357.597 275.82 354.956C276.386 352.316 276.597 349.565 276.441 346.866C276.285 344.166 275.764 341.572 274.909 339.234C274.054 336.896 272.882 334.861 271.461 333.248C270.04 331.635 268.4 330.477 266.634 329.84C264.869 329.203 263.015 329.101 261.18 329.539C259.345 329.977 257.565 330.947 255.946 332.392L230.675 354.109L166.041 317.086L155.028 326.559L198.082 382.128L169.764 406.463L147.793 390.621V390.621Z" fill="#BBCB00"/>
</g>
<path fill-rule="evenodd" clip-rule="evenodd" d="M673.009 399.074C674.125 398.223 676.451 402.103 675.441 403.461C674.616 404.857 672.137 400.024 673.009 399.074ZM669.052 397.531C669.711 397.928 670.139 398.272 669.612 399.184C666.246 399.984 667.573 395.037 669.052 397.531ZM665.768 389.489C667.161 389.257 668.961 390.934 667.77 392.21C667.167 392.114 666.62 391.877 665.892 392.189C663.584 392.749 663.045 389.465 665.768 389.489ZM664.424 396.388C665.333 397.895 665.245 400.188 665.104 402.227C663.399 401.789 663.714 397.632 664.424 396.388ZM658.424 390.863C657.23 390.734 656.202 388.819 657.363 387.647C658.627 386.899 660.988 388.516 660.986 390.195C660.904 391.867 659.667 391.247 658.424 390.863ZM653.893 377.405C654.756 377.733 656.341 381.585 655.43 382.43C654.213 383.143 652.768 378.248 653.893 377.405ZM647.828 381.609C648.693 378.741 651.543 383.811 650.862 385.417C649.737 386.536 647.722 383.033 647.828 381.609ZM648.704 371.947C650.066 374.031 647.788 375.324 646.329 375.99C642.955 376.925 647.439 370.627 648.704 371.947ZM641.791 370.804C640.965 368.781 643.11 365.101 643.068 368.676C642.629 369.478 642.871 374.098 641.791 370.804ZM638.608 366.056C638.539 364.199 640.079 363.331 639.902 366.119C639.612 367.619 638.799 368.228 638.608 366.056ZM638.914 358.097C639.112 358.84 639.131 359.547 638.391 359.812C632.339 363.033 637.69 355.164 638.914 358.097ZM636.154 351.857C637.31 352.615 638.076 355.779 635.983 354.284C634.534 353.836 633.327 353.601 631.703 353.213C628.556 350.524 634.737 350.031 636.154 351.857ZM629.215 384.656C627.842 381.626 631.027 382.279 632.489 382.936C634.76 384.956 630.412 385.516 629.215 384.656ZM629.274 357.516C628.404 357.328 627.564 356.651 626.435 356.795C624.634 352.174 630.74 354.38 629.274 357.516ZM627.154 360.328C628.78 359.02 627.848 365.037 627.197 365.884C624.847 368.901 626.605 361.33 627.154 360.328ZM641.374 396.653C640.875 399.831 639.119 402.407 639.818 397.25C639.914 395.357 641.926 393.434 641.374 396.653ZM620.583 352.113C621.227 349.48 622.274 347.433 623.145 344.771C624.126 345.83 624.418 347.711 623.646 349.233C623.161 350.141 620.807 355.804 620.583 352.113ZM620.892 360.736C620.63 361.984 621.68 363.329 621.239 364.291C618.254 364.674 619.587 354.653 620.892 360.736ZM614.329 340.706C615.644 340.708 619.485 340.192 618.521 342.578C617.066 342.832 611.689 343.665 614.329 340.706ZM614.985 346.311C615.872 346.779 617.198 348.503 616.381 349.602C615.015 350.025 613.693 347.282 614.985 346.311ZM615.158 366.394C615.025 367.179 615.333 370.695 614 370.204C612.946 367.497 613.957 361.464 616.202 366.501C615.875 366.468 615.559 366.435 615.158 366.394ZM614.385 358.618C614.618 359.252 613.732 360.74 613.2 359.761C612.744 359.042 613.788 356.732 614.385 358.618ZM609.556 348.107C610.848 350.268 613.067 351.374 614.772 353.447C616.471 357.179 611.647 354.19 610.757 352.853C609.945 352.055 607.709 348.725 609.556 348.107ZM605.807 365.387C607.049 363.987 609.818 361.211 608.507 365.283C607.914 366.486 605.271 368.222 605.807 365.387ZM608.204 359.278C606.726 358.205 605.842 359.964 604.431 360.156C602.931 357.25 609.031 355.326 608.204 359.278ZM600.634 350.178C601.726 350.938 604.319 353.189 603.33 354.622C602.002 354.129 599.491 351.657 600.634 350.178ZM593.433 378.525C593.535 377.497 594.927 377.116 594.463 378.806C594.879 379.434 595.793 380.217 595.557 381.427C594.676 383.286 592.657 380.006 593.433 378.525ZM592.955 370.335C595.205 371.457 593.356 372.844 591.686 372.911C590.633 371.536 591.402 369.949 592.955 370.335ZM593.208 343.775C591.059 341.036 598.011 341.744 597.313 344.216C596.093 343.703 594.636 344.279 593.208 343.775ZM670.369 388.212C666.893 384.076 662.552 381.591 659.211 377.311C647.582 361.744 651.428 367.366 646.231 366.835C645.09 365.645 646.399 364.394 647.827 364.761C641.998 353.483 635.695 349.392 629.742 342.228C629.049 341.035 627.984 344.334 626.855 342.228C626.077 341.093 628.078 340.544 627.347 339.661C624.192 335.606 625.427 337.208 622.504 339.6C621.643 338.337 622.344 337.268 623.352 336.284C621.325 336.495 621.872 334.88 620.618 334.51C616.035 335.393 611.96 337.834 607.39 338.06C605.754 338.721 605.541 342.819 604.865 344.573C603.422 345.394 603.815 339.773 604.431 338.892C604.103 338.889 602.929 337.642 601.495 337.898C585.525 337.212 582.805 335.138 588.898 346.311C589.544 348.549 592.118 346.938 593.12 348.662C593.416 349.581 592.69 349.657 591.905 349.574C592.012 349.73 592.118 349.888 592.225 350.045C590.252 352.09 594.03 354.08 594.867 356.093C595.807 357.588 596.106 360.695 598.048 359.184C598.348 360.404 599.804 359.282 600.778 359.501C601.839 360.477 600.386 361.68 599.403 361.841C600.247 362.776 599.01 363.424 599.21 364.679C600.471 366.852 602.479 375.819 598.419 372.424C597.054 370.636 598.755 369.869 600.348 370.304C600.464 369.45 600.147 368.234 599.813 367.247C598.798 368.193 597.16 368.431 598.048 365.884C596.181 366.394 593.984 366.913 591.849 366.926C593.133 370.257 590.036 368.93 589.209 366.969C588.543 366.776 587.057 366.642 586.114 366.59C586.767 369.392 588.463 372.97 589.209 376.111C590.074 375.156 591.788 376.706 590.994 377.613C590.994 377.613 589.716 378.298 589.209 378.429C590.091 381.193 590.111 397.781 590.994 393.39C591.205 391.442 593.25 389.435 592.266 388.283C590.088 386.227 593.008 384.906 593.738 387.244C595.444 384.936 598.091 383.389 599.21 380.332C600.303 381.055 600.857 379.968 601.451 378.429C601.911 379.539 603.645 379.496 604.151 378.172C604.564 377.104 603.841 376.587 605.096 375.887C606.341 375.198 605.785 373.568 606.618 372.086C607.324 371.484 607.731 373.549 607.35 374.349C607.866 374.59 608.568 373.234 609.096 373.914C612.14 374.987 615.653 373.683 618.78 373.213C619.997 372.911 622.849 378.787 623.883 380.332C626.847 375.605 627.525 379.151 625.103 381.609C627.12 384.328 629.703 388.201 631.703 391.3C631.436 389.447 633.934 386.583 634.156 388.637C632.439 391.52 635.222 395.798 636.385 398.047C637.101 399.306 637.705 400.791 638.166 402.227C640.19 401.455 642.897 400.043 644.905 398.468C643.759 397.594 644.765 396.384 646.143 397.003C645.511 396.301 646.336 395.473 646.046 394.283C645.331 392.412 643.908 391.72 642.377 391.171C639.759 394.675 635.748 389.151 641.759 390.171C640.604 388.37 638.743 385.142 636.899 384.356C635.047 384.902 632.839 382.942 635.437 381.934C633.6 379.72 635.011 379.097 634.094 377.674C633.381 376.543 631.81 375.563 631.362 373.964C631.345 372.418 629.979 370.507 632.002 370.164C631.265 370.331 631.75 363.654 632.839 366.203C633.47 367.127 632.162 370.715 633.722 369.591C634.115 372.091 634.824 371.778 636.154 372.424C636.649 373.099 637.156 373.959 637.785 374.816C639.064 372.303 642.408 372.717 641.055 375.828C640.661 375.364 640.284 375.641 639.635 376.111C643.981 381.172 646.696 386.438 650.317 389.425C653.936 392.412 656.711 396.02 660.576 398.732C662.012 403.479 661.254 404.845 665.726 405.83C666.586 407.443 666.722 408.957 668.158 408.151C668.331 408.498 668.709 408.856 669.052 409.444C669.129 408.142 671.658 403.556 672.025 406.844C671.205 407.995 670.424 410.265 669.612 411.517C670.21 412.991 671.255 414.839 671.439 416.789C673.311 414.969 675.475 412.282 677.389 410.771C677.277 409.914 677.398 409.105 677.774 408.151C678.708 411.961 678.801 408.589 680.536 409.173C681.028 409.615 681.744 409.186 682.388 409.079C682.553 408.369 683.144 407.359 682.392 406.422C679.596 398.022 674.064 393.948 670.369 388.212Z" fill="#7AF267" fill-opacity="0.74"/>
<path fill-rule="evenodd" clip-rule="evenodd" d="M648.921 413.004C649.372 412.545 648.658 411.073 648.658 409.984C648.84 406.111 651.433 414.584 653.732 413.975C652.804 412.821 652.405 409.944 651.045 410.842C652.37 409.817 650.731 406.964 652.287 405.655C651.445 405.226 649.769 402.337 649.045 403.911C648.413 402.863 647.819 401.878 647.183 400.823C646.403 401.882 643.821 401.664 643.795 403.376C643.935 404.244 644.991 405.212 643.957 405.892C644.449 407.987 644.791 410.756 646.188 412.662C646.023 406.39 647.39 409.857 648.921 413.004ZM677.801 413.45C679.007 414.738 683 418.97 681.937 419.759C680.469 420.288 681.022 421.869 680.846 423.593C682.815 420.658 682.635 425.797 683.193 427.288C683.803 429.444 685.085 430.725 686.464 432.52C683.467 421.461 686.109 428.193 690.1 431.591C689.809 429.922 688.749 428.292 687.6 426.929C685.732 421.843 691.614 430.705 693.048 430.149C692.499 429.128 692.557 427.294 691.521 426.502C689.082 424.959 687.627 422.036 686.355 418.961C684.111 417.338 684.175 413.307 682.395 410.44C681.027 410.694 679.268 412.45 677.801 413.45ZM580.255 430.242C580.549 428.133 580.984 425.675 581.354 423.408C580.696 418.851 580.35 414.631 580.049 409.865C578.883 401.808 580.226 398.805 573.278 398.308C572.483 398.255 572.746 400.688 572.508 401.731C571.908 402.584 572.197 403.36 571.811 404.41C571.365 405.269 572.467 406.484 572.749 407.641C576.055 414.878 575.663 423.026 578.663 430.484C578.728 429.6 579.528 429.506 580.255 430.242ZM628.979 342.016C627.62 340.342 626.056 338.312 624.428 336.582C619.544 335.46 614.65 337.706 609.649 339.174C602.22 341.016 592.134 340.332 586.515 338.067C586.431 342.73 589.834 346.397 592.081 350.23C597.557 358.449 604.342 367.907 602.097 378.158C616.179 365.691 625.272 375.475 635.432 368.333C635.953 369.104 635.604 369.797 635.407 370.948C637.342 373.777 639.828 376.68 642.368 379.194C654.403 393.003 668.922 402.474 671.617 415.724C675.175 412.668 678.819 408.102 682.238 409.064C676.321 395.163 663.955 386.755 655.029 375.406C652.544 372.185 650.428 369.288 648.139 365.701C641.952 353.484 635.055 349.397 628.979 342.016ZM659.08 342.938C655.78 342.401 655.168 342.406 652.773 339.852C651.918 343.103 648.415 339.219 650.233 345.322C648.502 347.228 648.038 343.694 648.664 342.079C643.476 342.121 647.705 347.985 648.502 350.987C647.275 352.834 645.658 349.691 645.374 348.171C643.367 348.883 641.237 349.254 639.017 349.865C655.346 366.661 644.327 363.578 653.474 358.291C653.997 357.824 653.519 356.71 654.429 356.053C654.789 355.803 655.152 355.984 655.348 356.654C656.356 362.85 660.453 357.924 656.946 355.192C656.963 354.18 658.566 354.745 658.415 353.516C658.392 348.818 661.555 345.206 664.272 341.926C663.872 341.833 663.551 341.758 663.222 341.681C663.411 341.888 663.565 342.058 663.756 342.268C662.946 342.923 662.056 342.627 661.359 343.058C661.163 344.833 660.602 345.629 659.538 345.509C659.69 344.684 659.84 343.872 659.993 343.036C659.923 343.017 659.538 342.92 659.08 342.938ZM591.621 366.969C590.04 367.185 588.445 366.908 586.637 366.944C591.109 378.301 589.896 384.556 590.66 393.39C592.171 386.66 597.149 384.685 599.125 378.864C600.517 375.268 600.769 371.665 599.722 367.714C599.519 366.924 599.055 365.779 598.108 366.226C596.04 367.098 593.914 366.873 591.621 366.969ZM590.676 364.218C593.046 364.425 595.59 364.573 598.195 364.06C596.778 361.165 595.383 358.46 593.448 355.697C581.967 339.048 589.031 341.331 582.257 341.481C586.17 348.234 587.354 356.172 587.058 364.218H590.676ZM634.011 393.144C640.716 402.175 635.632 403.186 643.202 399.506C644.012 398.419 646.901 398.349 645.804 396.636C642.885 391.143 639.131 386.812 635.247 381.957C629.796 373.705 632.209 373.737 628.073 374.645C625.748 375.171 623.687 374.567 621.198 375.158C625.191 381.17 629.859 386.951 634.011 393.144ZM643.872 347.017C644.064 346.971 644.255 346.925 644.408 346.888C642.721 340.29 647.834 340.366 651.381 339.597C651.699 338.697 651.879 337.88 653.069 337.847C656.183 339.968 655.367 340.607 659.482 341.088C660.516 341.276 661.177 341.621 662.411 341.607C662.82 341.24 663.171 340.705 663.869 340.611C668.321 340.149 672.366 343.853 673.715 348.724C674.759 351.664 673.714 354.782 672.771 357.697C674.214 362.412 686.301 362.305 681.703 369.814C687.952 373.704 694.09 378.552 698.875 385.01C701.224 388.398 704.386 396.145 698.487 396.524C697.673 396.479 696.294 396.977 696.278 398.43C696.496 400.874 698.145 402.181 698.923 404.601C706.81 423.39 689.379 412.25 683.106 407.117C683.335 407.899 683.704 408.939 683.932 409.854C683.722 410.292 683.579 410.265 684.162 410.947C686.241 413.685 686.558 416.878 688.683 419.684C689.771 422.67 697.231 426.366 693.901 429.036C695.166 432.987 693.507 432.796 691.125 430.721C692.814 435.348 690.05 433.769 687.946 431.655C691.118 444.469 681.569 431.953 681.318 427.161C678.378 430.226 678.15 425.533 678.6 422.947C678.515 422.147 679.42 421.353 678.583 420.843C679.585 419.43 678.807 417.001 677.666 415.485C676.483 412.157 673.201 418.12 670.946 417.499C668.954 414.6 667.16 410.54 665.106 406.993C663.755 412.615 659.705 414.879 656.789 408.879C655.155 403.954 655.635 398.751 652.433 394.539C648.515 388.137 643.479 383.271 638.583 377.75C633.137 371.368 636.315 370.689 631.7 373.654C636.697 381.611 644.691 387.396 648.01 396.871C648.145 398.062 648.126 398.998 649.001 399.973C649.886 402.114 651.421 402.895 652.992 404.28C654.362 405.688 655.018 408.341 652.372 407.994C653.243 410.708 655.517 412.759 656.33 415.612C657.384 419.914 651.315 414.922 650.487 413.723C650.769 416.934 649.616 416.954 648.11 414.199C648.464 419.55 644.785 413.286 644.331 411.458C643.373 408.994 643.68 406.523 642.382 404.158C641.798 402.966 639.066 404.953 638.037 404.875C636.771 404.65 633.689 402.693 636.569 402.063C631.997 392.528 624.298 385.3 620.038 375.373C614.103 373.68 606.959 378.225 601.924 382.49C588.841 395.284 593.223 399.507 589.702 396.227C586.387 390.292 588.762 382.927 587.371 376.202C586.981 373.92 586.221 370.627 585.076 368.891C584.605 368.938 584.29 369.095 584.021 368.373C583.79 367.05 583.284 367.234 582.207 367.794C580.255 368.643 578.825 369.341 576.648 369.516C566.354 369.413 556.429 368.165 546.056 366.937C555.103 374.168 558.948 381.463 565.053 387.555C571.68 394.834 573.247 392.585 572.769 396.495C574.586 397.531 578.668 395.947 579.746 399.381C582.711 408.551 582.009 418.585 583.402 428.318C581.593 427.989 583.282 434.625 580.392 432.558C578.77 438.334 574.964 425.368 574.849 423.908C573.826 418.172 573.206 412.475 571.346 406.855C570.808 407.472 570.53 409.596 569.194 408.828C565.373 406.956 561.745 404.524 558.024 401.99C548.545 396.367 540.016 389.196 532.636 380.305C528.487 375.406 522.816 370.441 523.532 362.677C524.321 354.696 543.46 348.338 547.262 346.42C553.036 343.015 581.011 333.649 581.597 339.652C582.95 339.894 582.99 338.187 583.935 337.259C584.514 336.593 585.063 337.273 585.488 336.144C591.429 336.982 597.58 337.106 603.753 336.832C610.308 336.857 615.741 332.226 622.437 333.631C628.331 336.788 632.13 344.877 638.104 348.68C639.918 347.897 641.704 347.012 643.872 347.017Z" fill="#BBCB00"/>
<path fill-rule="evenodd" clip-rule="evenodd" d="M528.342 426.61C527.481 433.051 526.296 433.353 522.493 437.2C518.747 442.137 514.075 446.29 510.987 452.068C517.938 444.661 527.941 445.599 530.973 440.483C532.418 437.857 532.421 434.933 532.634 431.727C533.757 424.866 532.463 427.817 528.342 426.61ZM527.297 426.3C526.64 425.423 526.522 427.057 525.68 426.37C525.102 423.171 526.041 419.636 526.109 416.153C527.156 404.479 529.027 393.251 533.651 382.612C549.16 398.604 547.604 391.185 543.042 403.541C541.021 406.929 540.118 410.557 538.909 414.593C537.597 418.826 535.792 422.381 536.216 427.208C536.032 428.296 534.588 426.764 534.648 428.12C534.365 432.236 534.527 436.228 533.391 440.323C532.305 443.394 530.209 445.528 527.225 446.209C521.028 448.684 515.179 450.574 510.185 456.196C503.418 457.286 514.061 442.144 515.893 441.027C522.276 432.674 526.406 431.403 527.297 426.3Z" fill="#BBCB00"/>
<path fill-rule="evenodd" clip-rule="evenodd" d="M590.489 336.423C589.959 336.369 589.428 336.315 588.898 336.261C589.429 336.315 589.959 336.369 590.489 336.423Z" fill="#BBCB00"/>
<path fill-rule="evenodd" clip-rule="evenodd" d="M574.778 369.515C575.111 369.522 575.443 369.529 575.773 369.536C575.439 369.529 575.109 369.522 574.778 369.515Z" fill="#BBCB00"/>
<path fill-rule="evenodd" clip-rule="evenodd" d="M576.369 337.598C575.974 337.864 575.576 337.947 575.176 337.621C575.574 337.613 575.971 337.606 576.369 337.598Z" fill="#BBCB00"/>
<path fill-rule="evenodd" clip-rule="evenodd" d="M579.75 337.784C579.352 337.739 578.955 337.694 578.557 337.649C578.954 337.694 579.352 337.739 579.75 337.784Z" fill="#BBCB00"/>
<path fill-rule="evenodd" clip-rule="evenodd" d="M658.701 340.767C658.303 340.716 657.906 340.665 657.508 340.614C657.906 340.665 658.303 340.716 658.701 340.767Z" fill="#BBCB00"/>
<path fill-rule="evenodd" clip-rule="evenodd" d="M666.258 340.537C665.927 340.486 665.596 340.435 665.264 340.385C665.596 340.435 665.927 340.486 666.258 340.537Z" fill="#BBCB00"/>
<path fill-rule="evenodd" clip-rule="evenodd" d="M643.786 346.863C643.454 346.867 643.123 346.871 642.792 346.875L643.786 346.863Z" fill="#BBCB00"/>
<path fill-rule="evenodd" clip-rule="evenodd" d="M573.585 338.032C573.253 338.036 572.922 338.04 572.591 338.044C572.921 337.76 573.253 337.804 573.585 338.032Z" fill="#BBCB00"/>
<path fill-rule="evenodd" clip-rule="evenodd" d="M582.571 417.349C582.547 416.968 582.523 416.586 582.499 416.205C582.523 416.587 582.547 416.968 582.571 417.349Z" fill="#BBCB00"/>
<path fill-rule="evenodd" clip-rule="evenodd" d="M577.165 369.306C577.365 369.299 577.565 369.292 577.763 369.286C577.562 369.293 577.363 369.3 577.165 369.306Z" fill="#BBCB00"/>
<path fill-rule="evenodd" clip-rule="evenodd" d="M693.503 432.223C693.704 432.223 693.904 432.224 694.101 432.225C693.901 432.226 693.702 432.225 693.503 432.223Z" fill="#BBCB00"/>
<path fill-rule="evenodd" clip-rule="evenodd" d="M565.035 339.699C564.77 339.75 564.504 339.801 564.238 339.852C564.504 339.801 564.77 339.75 565.035 339.699Z" fill="#BBCB00"/>
<path fill-rule="evenodd" clip-rule="evenodd" d="M560.857 368.619C561.057 368.612 561.258 368.606 561.455 368.6C561.254 368.606 561.056 368.613 560.857 368.619Z" fill="#BBCB00"/>
<path fill-rule="evenodd" clip-rule="evenodd" d="M619.395 333.27C619.111 333.274 618.826 333.278 618.541 333.281C618.826 333.278 619.111 333.274 619.395 333.27Z" fill="#BBCB00"/>
<path fill-rule="evenodd" clip-rule="evenodd" d="M590.688 363.949C591.019 364.004 591.351 364.059 591.682 364.113C591.351 364.059 591.019 364.004 590.688 363.949Z" fill="#BBCB00"/>
<path fill-rule="evenodd" clip-rule="evenodd" d="M659.697 342.758C659.497 342.752 659.297 342.746 659.099 342.742C659.3 342.748 659.499 342.753 659.697 342.758Z" fill="#BBCB00"/>
<path fill-rule="evenodd" clip-rule="evenodd" d="M657.906 343.207C657.406 344.352 656.013 344.073 657.156 345.752C658.311 346.864 656.767 347.502 655.946 346.806C654.378 344.982 656.03 343.161 657.906 343.207Z" fill="#BBCB00"/>
<defs>
<radialGradient id="paint0_angular_23_3" cx="0" cy="0" r="1" gradientUnits="userSpaceOnUse" gradientTransform="translate(403.5 402.833) rotate(121.067) scale(273.199 615.998)">
<stop offset="0.895876" stop-color="#030602" stop-opacity="0.0232329"/>
<stop offset="0.927257" stop-opacity="0"/>
<stop offset="0.928777" stop-color="#040804" stop-opacity="0.0345511"/>
<stop offset="0.975056" stop-color="#7AF267"/>
</radialGradient>
<clipPath id="clip0_23_3">
<rect width="169.908" height="244.311" fill="white" transform="matrix(0.936379 0.350991 -0.20393 0.978985 153.764 244.83)"/>
</clipPath>
</defs>
</svg>
